<svg width="266" height="228" viewBox="0 0 266 228" fill="none" xmlns="http://www.w3.org/2000/svg">
<path d="M35.8154 46.7038C51.056 38.5106 66.4053 30.2858 81.9776 25.2542C96.4435 20.5645 111.665 18.0932 124.903 22.7874C137.037 27.074 147.198 37.9707 148.43 56.1096C149.064 65.3599 147.536 75.3089 144.732 84.7197C141.855 94.3798 137.653 103.998 132.063 111.784C126.572 119.424 119.355 124.877 112.156 125.358C105.532 125.801 99.6427 121.756 97.766 113.493C96.0037 105.775 97.6606 95.9118 103.359 89.6575C106.571 86.1274 110.356 83.9798 114.031 82.087C117.418 80.3479 120.866 78.9619 124.311 77.958C138.309 73.8791 152.006 75.6142 164.115 81.4729C175.987 87.1977 186.003 96.4241 194.922 107.638C199.777 113.754 204.211 120.318 207.055 128.709C211.167 140.826 212.434 155.162 213.223 169.101C213.514 174.261 213.716 179.458 213.859 184.67C213.917 186.634 213.029 188.732 211.457 189.414C210.073 190.024 208.432 189.042 208.378 187.064C208.12 177.814 207.713 168.615 206.873 159.575C206.543 155.999 206.135 152.463 205.623 148.977C205.222 146.273 204.697 143.278 204.215 141.108C203.205 136.549 201.883 132.184 200.152 128.192C200.046 127.953 199.94 127.714 199.835 127.476C199.785 127.381 199.424 126.588 199.74 127.272C199.558 126.883 199.371 126.508 199.179 126.148C198.734 125.267 198.26 124.408 197.782 123.564C196.902 122.026 195.955 120.565 194.971 119.156C181.047 99.1335 162.112 83.4952 139.469 83.142C133.316 83.0392 126.993 84.0666 120.716 86.4639C117.467 87.7014 114.196 89.2356 111.043 91.1879C108.281 92.905 105.399 95.1767 103.819 98.936C101.48 104.512 102.449 112.075 105.776 115.376C110.068 119.632 116.904 118.103 122.189 113.912C128.373 108.998 132.956 100.738 136.377 92.4832C139.7 84.4868 142.036 75.7191 142.797 67.2018C143.516 59.0868 142.622 51.1953 139.66 44.9877C136.809 39.0043 132.358 34.8756 127.431 32.1688C116.393 26.0856 102.879 27.085 90.1094 30.1881C75.616 33.705 61.1643 40.7283 46.9721 48.1797C43.469 50.012 39.9731 51.8943 36.4772 53.7766C35.0157 54.5714 33.5746 53.2503 33.3979 51.4269C33.2227 49.4125 34.3538 47.4986 35.8154 46.7038Z" fill="#FFC5C5"/>
<path d="M230.963 170.38C226.629 188.111 222.295 205.843 217.965 223.56C217.237 226.535 214.44 227.253 213.209 225.595C205.326 215.023 197.137 204.887 188.633 195.216C187.609 194.051 188.112 191.312 189.207 189.93C190.525 188.279 192.046 188.475 193.07 189.64C201.574 199.311 209.763 209.448 217.646 220.019C216.064 220.699 214.472 221.375 212.891 222.054C217.225 204.323 221.559 186.591 225.889 168.874C226.385 166.867 228.215 165.576 229.514 165.961C230.975 166.395 231.459 168.373 230.963 170.38Z" fill="#FFC5C5"/>
</svg>
