<svg width="1440" height="1760" viewBox="0 0 1440 1760" fill="none" xmlns="http://www.w3.org/2000/svg">
<path d="M1725 1321.97C1251.16 1841.07 531.2 1856.28 178.976 1504.23C-78.8911 1246.47 -190.945 740.49 77.5984 372.444C308.105 56.5572 773.655 -95.6417 1137.83 109.629C1429.49 274.003 1641.03 659.086 1505.33 1016.75C1366.57 1382.51 914.571 1587.95 580.272 1432.16C362.532 1330.71 160.039 1059.87 229.68 766.667C291.519 506.234 555.915 279.388 834.482 334.321C1076.02 381.942 1287.72 633.399 1235.13 882.374C1192.13 1085.98 970.761 1269.09 763.991 1218.17C607.828 1179.72 467.729 1009.21 496.297 839.943C520.425 697.046 655.431 600.824 797.816 625.043C911.731 644.398 988.457 752.795 969.161 867.099C953.718 958.555 867.327 1020.15 776.202 1004.64C703.296 992.24 654.191 922.88 666.565 849.735C676.458 791.212 731.733 751.783 790.078 761.705C836.735 769.637 868.176 814.027 860.242 860.865C854.757 893.439 816.916 927.156 781.198 917.201C756.939 910.444 738.427 884.92 736.272 853.749" stroke="#89BAF2" stroke-width="31" stroke-miterlimit="10" stroke-linecap="round" stroke-linejoin="round"/>
</svg>
