<svg width="171" height="173" viewBox="0 0 171 173" fill="none" xmlns="http://www.w3.org/2000/svg">
<ellipse cx="85.5" cy="86.3725" rx="85.5" ry="86.3725" fill="#FFF6E5"/>
<mask id="mask0" mask-type="alpha" maskUnits="userSpaceOnUse" x="1" y="2" width="168" height="168">
<path d="M84.6272 165.766C128.475 165.766 164.02 130.221 164.02 86.3733C164.02 42.5259 128.475 6.98047 84.6272 6.98047C40.7798 6.98047 5.23438 42.5259 5.23438 86.3733C5.23438 130.221 40.7798 165.766 84.6272 165.766Z" fill="#C4C4C4" stroke="#FDD4CE" stroke-width="8" stroke-miterlimit="10"/>
</mask>
<g mask="url(#mask0)">
<path d="M86.3317 87.3054C86.0538 92.9806 82.6836 93.312 81.4972 87.9609C78.8324 75.9407 69.8795 55.6053 61.5786 42.1315C51.4145 25.6365 34.8555 4.26086 34.8555 4.26086L78.7754 -1.09375C78.7754 -1.09375 86.8126 16.388 87.6071 35.3981C88.5939 58.9684 87.2936 67.7573 86.3317 87.3054Z" fill="#89BAF2"/>
<path d="M89.2209 89.5713C84.8389 93.1873 82.3237 90.9179 85.4801 86.4397C92.5697 76.3753 101.569 56.0577 105.937 40.8454C111.281 22.2236 115.926 -4.41406 115.926 -4.41406L149.465 24.4395C149.465 24.4395 141.958 42.1529 128.442 55.5483C111.687 72.1536 104.316 77.1128 89.2209 89.5713Z" fill="#89BAF2"/>
<path d="M88.3823 93.8365C82.7284 93.2737 82.5681 89.8927 87.969 88.9736C100.107 86.9144 120.866 78.9911 134.739 71.3743C151.722 62.0509 173.899 46.582 173.899 46.582L177.049 90.7121C177.049 90.7121 159.189 97.8659 140.161 97.7055C116.57 97.5132 107.856 95.7746 88.3823 93.8365Z" fill="#89BAF2"/>
<path d="M85.2015 94.8474C82.437 89.8811 85.1232 87.8219 88.9565 91.7337C97.5709 100.53 115.922 113.059 130.094 120.106C147.44 128.735 172.796 138.126 172.796 138.126L138.345 165.886C138.345 165.886 122.281 155.298 111.558 139.58C98.2656 120.096 94.7208 111.948 85.2015 94.8474Z" fill="#89BAF2"/>
<path d="M81.8818 92.9968C84.4077 87.9058 87.6283 88.9532 86.5773 94.3292C84.2082 106.41 84.2794 128.634 86.4989 144.302C89.2137 163.483 95.8365 189.7 95.8365 189.7L53.445 177.039C53.445 177.039 53.0709 157.804 59.9503 140.062C68.4757 118.063 73.1819 110.528 81.8818 92.9968Z" fill="#89BAF2"/>
<path d="M79.9857 89.8323C85.604 88.9631 86.6015 92.1979 81.6031 94.4352C70.3667 99.4621 52.2437 112.323 40.715 123.168C26.6035 136.442 8.99351 156.963 8.99351 156.963L-5.08594 115.016C-5.08594 115.016 10.4221 103.627 28.8836 99.0239C51.7734 93.3166 60.6443 92.8214 79.9857 89.8323Z" fill="#89BAF2"/>
<path d="M84.0896 86.9168C88.4146 90.7751 86.5442 93.5967 81.5494 91.0815C70.3307 85.4311 48.5311 79.3141 32.5884 77.0982C13.0724 74.3835 -14.3633 73.4928 -14.3633 73.4928L9.18916 36.0391C9.18916 36.0391 28.1423 41.0339 43.7216 52.6159C63.0452 66.9804 69.1943 73.6282 84.0896 86.9168Z" fill="#89BAF2"/>
</g>
</svg>
