<svg width="272" height="288" viewBox="0 0 272 288" fill="none" xmlns="http://www.w3.org/2000/svg">
<path d="M137.303 166.968C133.126 161.016 127.609 156.067 121.221 152.57C117.692 150.654 113.754 149.139 109.745 149.26C105.698 149.449 101.601 151.556 99.9431 155.187C97.4005 160.85 101.245 167.066 103.366 172.89C108.722 187.754 102.172 204.043 94.8117 218.015C93.4788 220.517 92.068 223.156 91.9857 226.007C91.8873 228.17 92.5163 230.248 93.1843 232.258C95.538 239.981 97.9307 247.635 100.284 255.358C100.766 256.9 101.277 258.549 102.466 259.723C104.692 261.94 108.304 261.639 111.492 261.686C114.627 261.748 118.551 263.21 118.718 266.339C119 270.937 112.288 271.512 107.833 272.736C103.055 274.05 99.2836 277.972 94.4472 279.071C89.396 280.228 84.0649 278.057 80.2303 274.609C76.3957 271.16 73.765 266.631 71.2953 262.057C64.6803 249.964 58.5726 237.616 53.0407 225.052C51.6577 221.911 50.8332 217.231 53.9749 215.848C55.8872 215.034 58.3012 216.044 59.9882 214.83C62.0993 213.268 60.9015 209.961 59.6325 207.655C51.3714 192.724 47.5244 175.367 48.6679 158.313C48.8252 156.365 48.9531 154.31 48.0757 152.588C47.3554 151.228 46.0499 150.259 44.7591 149.344C27.7189 136.711 14.0116 118.139 11.7393 97.0601C9.40384 76.1712 20.8865 53.0426 40.8863 45.9866C43.6138 57.5897 46.3761 69.5296 44.4069 81.2692C42.7466 91.1923 37.7062 100.37 36.168 110.318C34.6298 120.265 38.0175 132.379 47.5351 135.708C56.5978 123.52 59.632 107.043 70.832 96.7487C80.6429 87.7024 95.2662 85.2414 108.371 87.7579C121.476 90.2745 133.359 97.1675 144.247 104.853C145.318 105.598 146.403 106.397 147.732 106.609C151.228 107.148 153.881 102.725 152.99 99.2753C152.1 95.8257 149.019 93.44 146.018 91.552C143.016 89.6641 139.693 87.8647 137.88 84.8417C136.308 82.2723 136.033 79.173 134.861 76.3782C132.801 71.403 127.921 67.7225 122.558 67.1183C124.171 60.3832 133.57 60.3395 139.794 57.3587C142.853 55.8831 145.363 53.4615 147.902 51.1472C154.672 44.8995 161.979 39.1387 170.345 35.3383C184.058 29.1446 201.379 27.674 210.031 15.2519C213.703 20.419 209.757 27.9107 211.869 33.9108C212.841 36.8183 215.174 39.0054 217.054 41.4327C226.295 53.208 225.738 70.505 219.094 83.9335C217.431 87.3345 215.324 90.8 215.331 94.6077C215.316 96.8631 216.082 99.0192 216.672 101.166C221.461 118.379 217.281 137.826 205.863 151.528C202 156.169 197.432 160.137 193.995 165.065C183.054 180.714 186.084 201.816 189.504 220.56C190.466 225.952 192.823 232.635 198.287 232.98C200.572 233.102 202.763 232.039 205.038 232.337C209.903 233.02 211.298 240.198 208.338 244.129C205.377 248.06 200.155 249.437 195.328 250.36C187.475 251.826 179.504 252.863 171.507 253.387C170.535 253.423 169.457 253.489 168.582 253.036C167.448 252.482 166.84 251.322 166.301 250.2C152.778 223.266 142.839 196.559 137.303 166.968Z" fill="#FC7878"/>
</svg>
