<svg width="1834" height="1760" viewBox="0 0 1834 1760" fill="none" xmlns="http://www.w3.org/2000/svg">
<path d="M1818 1321.97C1344.16 1841.07 624.2 1856.28 271.976 1504.23C14.1089 1246.47 -97.9446 740.49 170.598 372.444C401.105 56.5572 866.655 -95.6417 1230.83 109.629C1522.49 274.003 1734.03 659.086 1598.33 1016.75C1459.57 1382.51 1007.57 1587.95 673.272 1432.16C455.532 1330.71 253.039 1059.87 322.68 766.667C384.519 506.234 648.915 279.388 927.482 334.321C1169.02 381.942 1380.72 633.399 1328.13 882.374C1285.13 1085.98 1063.76 1269.09 856.991 1218.17C700.828 1179.72 560.729 1009.21 589.297 839.943C613.425 697.046 748.431 600.824 890.816 625.043C1004.73 644.398 1081.46 752.795 1062.16 867.099C1046.72 958.555 960.327 1020.15 869.202 1004.64C796.296 992.24 747.191 922.88 759.565 849.735C769.458 791.212 824.733 751.783 883.078 761.705C929.735 769.637 961.176 814.027 953.242 860.865C947.757 893.439 909.916 927.156 874.198 917.201C849.939 910.444 831.427 884.92 829.272 853.749" stroke="#89BAF2" stroke-width="31" stroke-miterlimit="10" stroke-linecap="round" stroke-linejoin="round"/>
</svg>
