<svg width="41" height="41" viewBox="0 0 41 41" fill="none" xmlns="http://www.w3.org/2000/svg">
<path d="M20.5 0C14.9308 0 14.2355 0.025625 12.0489 0.123C9.86563 0.2255 8.37937 0.568875 7.0725 1.07625C5.72463 1.599 4.58004 2.30113 3.44058 3.44058C2.30113 4.58004 1.59729 5.72292 1.07625 7.0725C0.568875 8.37937 0.223792 9.86563 0.123 12.0489C0.0205 14.2355 0 14.9308 0 20.5C0 26.0692 0.025625 26.7645 0.123 28.9511C0.2255 31.1327 0.568875 32.6206 1.07625 33.9275C1.599 35.2737 2.30113 36.42 3.44058 37.5594C4.58004 38.6972 5.72292 39.4027 7.0725 39.9238C8.38108 40.4294 9.86733 40.7762 12.0489 40.877C14.2355 40.9795 14.9308 41 20.5 41C26.0692 41 26.7645 40.9744 28.9511 40.877C31.1327 40.7745 32.6206 40.4294 33.9275 39.9238C35.2737 39.401 36.42 38.6972 37.5594 37.5594C38.6972 36.42 39.4027 35.2788 39.9238 33.9275C40.4294 32.6206 40.7762 31.1327 40.877 28.9511C40.9795 26.7645 41 26.0692 41 20.5C41 14.9308 40.9744 14.2355 40.877 12.0489C40.7745 9.86733 40.4294 8.37767 39.9238 7.0725C39.401 5.72463 38.6972 4.58004 37.5594 3.44058C36.42 2.30113 35.2788 1.59729 33.9275 1.07625C32.6206 0.568875 31.1327 0.223792 28.9511 0.123C26.7645 0.0205 26.0692 0 20.5 0ZM20.5 3.69C25.9718 3.69 26.6244 3.71733 28.7854 3.81129C30.7842 3.90525 31.869 4.23667 32.5899 4.52025C33.55 4.89096 34.2299 5.33513 34.9508 6.05092C35.6666 6.76842 36.1107 7.45004 36.4815 8.41012C36.7616 9.13104 37.0965 10.2158 37.187 12.2146C37.2844 14.3773 37.3066 15.0265 37.3066 20.5C37.3066 25.9735 37.281 26.6244 37.1802 28.7854C37.076 30.7842 36.7428 31.869 36.461 32.5899C36.0783 33.55 35.6427 34.2299 34.9252 34.9508C34.2094 35.6666 33.5175 36.1107 32.5677 36.4815C31.8502 36.7616 30.7483 37.0965 28.7495 37.187C26.5731 37.2844 25.9325 37.3066 20.4488 37.3066C14.9633 37.3066 14.3227 37.281 12.148 37.1802C10.1475 37.076 9.04562 36.7428 8.32812 36.461C7.35608 36.0783 6.68813 35.6427 5.97233 34.9252C5.25313 34.2094 4.79358 33.5175 4.43483 32.5677C4.15296 31.8502 3.82154 30.7483 3.71733 28.7495C3.64046 26.597 3.61313 25.9325 3.61313 20.4744C3.61313 15.0145 3.64046 14.3483 3.71733 12.1702C3.82154 10.1714 4.15296 9.07125 4.43483 8.35375C4.79358 7.38 5.25313 6.71375 5.97233 5.99454C6.68813 5.27875 7.35608 4.8175 8.32812 4.46046C9.04562 4.17688 10.1236 3.84375 12.1223 3.74125C14.3005 3.66438 14.9411 3.63875 20.4231 3.63875L20.5 3.69ZM20.5 9.97325C14.6831 9.97325 9.97325 14.6883 9.97325 20.5C9.97325 26.3169 14.6883 31.0268 20.5 31.0268C26.3169 31.0268 31.0268 26.3118 31.0268 20.5C31.0268 14.6831 26.3118 9.97325 20.5 9.97325ZM20.5 27.3333C16.7246 27.3333 13.6667 24.2754 13.6667 20.5C13.6667 16.7246 16.7246 13.6667 20.5 13.6667C24.2754 13.6667 27.3333 16.7246 27.3333 20.5C27.3333 24.2754 24.2754 27.3333 20.5 27.3333ZM33.9036 9.55812C33.9036 10.9163 32.8 12.0181 31.4436 12.0181C30.0855 12.0181 28.9836 10.9145 28.9836 9.55812C28.9836 8.20171 30.0872 7.09983 31.4436 7.09983C32.7983 7.09813 33.9036 8.20171 33.9036 9.55812Z" fill="#FFF6E5"/>
</svg>
