<svg width="41" height="41" viewBox="0 0 41 41" fill="none" xmlns="http://www.w3.org/2000/svg">
<path d="M18.7681 24.6075L35.1604 41H2.37553L18.7681 24.6075ZM36.8836 18.6612V39.2766L20.4914 22.8843L23.7665 19.6092C23.7041 19.5331 23.6416 19.4569 23.5788 19.3802C23.135 18.8394 22.6775 18.2811 22.2367 17.6923L0.652344 39.2766V5.58094C0.652344 5.13236 1.01612 4.76857 1.4647 4.76857H21.1969C23.0527 1.90223 26.2764 0 29.9379 0C35.6774 0 40.3468 4.66947 40.3468 10.4088C40.347 14.0333 38.6122 16.517 36.8836 18.6612ZM16.633 13.0694H10.6121V15.3632H14.1589C13.674 16.859 12.2674 17.9436 10.6121 17.9436C8.5568 17.9436 6.8848 16.2716 6.8848 14.2164C6.8848 12.1611 8.55696 10.4891 10.6121 10.4891C11.4423 10.4891 12.2275 10.7559 12.8831 11.2605L14.2823 9.44307C13.2222 8.62682 11.9529 8.19546 10.6121 8.19546C7.29211 8.19546 4.59101 10.8966 4.59101 14.2165C4.59101 17.5365 7.29195 20.2376 10.6121 20.2376C13.9321 20.2376 16.6332 17.5365 16.6332 14.2165V13.0694H16.633ZM37.9099 10.4088C37.9099 6.00614 34.3409 2.4371 29.9381 2.4371C25.5353 2.4371 21.9665 6.00629 21.9665 10.4088C21.9665 17.027 29.4502 18.9233 29.4502 26.808H29.9382H30.4263C30.426 18.9235 37.9099 17.0272 37.9099 10.4088ZM29.9379 6.76293C28.2223 6.76293 26.8316 8.15369 26.8316 9.86925C26.8316 11.585 28.2225 12.9757 29.9379 12.9757C31.6538 12.9757 33.0445 11.5848 33.0445 9.86925C33.0445 8.15369 31.6538 6.76293 29.9379 6.76293Z" fill="#FFF6E5"/>
</svg>
