<svg width="356" height="348" viewBox="0 0 356 348" fill="none" xmlns="http://www.w3.org/2000/svg">
<path d="M260.856 40.2428C265.576 46.3323 265.744 54.9353 263.626 62.3699C261.509 69.8045 257.382 76.4547 254.054 83.4043C252.965 85.7016 251.907 88.2242 252.33 90.7165C252.624 92.5439 253.658 94.1019 254.621 95.6821C262.932 109.152 268.474 124.307 270.76 139.966C265.142 147.119 256.6 151.932 247.587 153.093C245.022 153.422 242.344 153.511 240.068 154.768C238.067 155.9 236.677 157.86 235.488 159.836C228.972 170.402 225.451 182.778 225.459 195.151C232.216 196.572 238.726 191.53 242.398 185.687C246.081 179.88 248.069 173.034 252.185 167.484C256.606 161.526 263.118 157.501 269.439 153.614C271.814 152.17 274.32 150.646 277.097 150.369C282.973 149.715 287.9 154.329 293.262 156.812C302.554 161.086 314.574 158.245 320.954 150.267C323.586 155.949 318.995 162.117 316.862 167.989C312.708 179.465 318.073 192.795 313.696 204.184C308.807 216.828 293.819 222.355 280.319 223.464C266.819 224.573 252.7 222.937 240.036 227.741C239.872 225.324 239.708 222.908 239.545 220.492C233.909 222.168 228.273 223.844 222.59 225.496C232.357 243.643 223.331 265.8 214.365 284.374C227.451 282.689 240.923 284.135 253.362 288.565C249.398 297.123 238.06 298.499 228.67 299.581C215.231 301.141 201.991 304.597 189.486 309.782C177.362 314.809 165.665 321.584 152.607 323.103C143.905 324.128 135.086 322.761 126.457 321.374C118.205 320.066 109.942 318.722 101.655 317.424C94.3946 316.277 86.9001 315.007 80.8015 310.914C74.8435 306.894 70.839 300.582 67.5226 294.212C51.3479 263.295 46.3862 226.693 53.7375 192.604C55.8295 182.945 58.8526 173.505 60.6029 163.757C65.1172 138.696 60.6607 112.159 48.2524 89.9389C46.9158 87.5352 45.4385 85.0577 45.2819 82.2867C44.9855 75.9169 51.539 71.6444 57.2349 68.7747C78.4157 58.0688 106.1 54.2679 122.752 75.1281C132.613 87.5281 135.818 103.998 136.158 119.831C136.421 132.517 134.969 145.619 129.055 156.86C121.145 171.894 106.267 181.93 96.2164 195.633C84.8389 211.12 80.0573 231.29 83.3548 250.198C86.6523 269.106 97.9153 286.513 113.85 297.257C106.44 281.392 98.8351 264.647 100.057 247.152C100.726 237.584 104.005 228.339 108.079 219.629C121.801 190.253 144.379 165.64 170.206 146.047C178.771 139.542 188.118 133.03 192.205 123.102C195.247 115.614 195.024 106.833 199.53 100.143C202.241 96.1265 206.481 93.2402 208.946 89.0654C213.275 81.804 211.33 72.6577 210.816 64.2017C210.179 53.5905 212.128 42.8404 216.389 33.0937C217.097 31.4633 217.984 29.7772 219.587 29.0041C224.12 26.8096 227.608 33.4783 228.264 38.4829C229.874 50.7101 231.473 62.9015 233.083 75.1287C234.92 59.9879 243.641 45.7977 256.333 37.3037L260.856 40.2428Z" fill="#FC7878"/>
</svg>
