<svg width="264" height="236" viewBox="0 0 264 236" fill="none" xmlns="http://www.w3.org/2000/svg">
<path d="M74.6523 38.5807C74.6523 38.5807 60.5792 10.6455 34.2801 34.6415C34.2801 34.6415 26.5824 40.0697 18.318 40.8991C18.318 40.8991 23.9307 39.6637 28.5318 49.7248C33.1328 59.786 28.5692 69.8661 50.5728 82.6429C50.5728 82.6429 36.9028 118.374 54.5592 142.286C72.2157 166.198 159.826 226.188 159.826 226.188C159.826 226.188 164.055 227.165 156.998 221.262C149.941 215.36 99.8459 174.18 93.801 144.26C87.7561 114.34 92.0318 108.305 92.0318 108.305C92.0318 108.305 127.431 122.083 161.957 124.273C161.957 124.273 220.864 169.171 245.01 194.338L182.534 124.517L241.009 125.539C241.009 125.539 175.676 112.35 170.458 108.275C165.235 104.199 115.413 58.936 110.974 56.8983C110.974 56.8983 124.247 33.7032 152.921 34.1434C181.595 34.5835 203.313 44.1244 221.619 40.4247C221.619 40.4247 146.893 15.2086 141.041 13.4588C135.189 11.7089 101.992 5.21904 74.6523 38.5807Z" fill="#FFF6E5"/>
</svg>
