<svg width="269" height="291" viewBox="0 0 269 291" fill="none" xmlns="http://www.w3.org/2000/svg">
<path d="M221.512 188.089C221.512 188.089 251.414 197.269 232.177 227.226C232.177 227.226 228.119 235.726 228.69 244.012C228.69 244.012 228.965 238.272 218.274 235.426C207.583 232.58 198.412 238.772 182.121 219.228C182.121 219.228 149.193 238.705 122.655 225.316C96.1174 211.927 22.2637 135.639 22.2637 135.639C22.2637 135.639 20.59 131.634 27.5941 137.599C34.5983 143.564 83.6076 186.031 114.118 186.964C144.628 187.897 149.859 182.668 149.859 182.668C149.859 182.668 130.331 150.087 122.372 116.419C122.372 116.419 68.2172 65.8904 39.3523 46.315L118.675 96.1752L107.845 38.7023C107.845 38.7023 131.822 100.892 136.715 105.351C141.611 109.816 194.599 151.326 197.354 155.36C197.354 155.36 217.99 138.38 212.739 110.187C207.489 81.994 194.435 62.1872 195.008 43.5205C195.008 43.5205 232.418 112.948 235.126 118.423C237.834 123.898 249.808 155.534 221.512 188.089Z" fill="#89BAF2"/>
</svg>
