<svg width="297" height="311" viewBox="0 0 297 311" fill="none" xmlns="http://www.w3.org/2000/svg">
<path d="M54.3631 180.975C54.3631 180.975 23.2627 184.321 36.4723 217.381C36.4723 217.381 38.8454 226.496 36.7142 234.524C36.7142 234.524 37.5324 228.835 48.5691 228.068C59.6057 227.301 67.4359 235.119 87.137 219.017C87.137 219.017 115.775 244.384 144.37 236.269C172.965 228.153 259.942 167.249 259.942 167.249C259.942 167.249 262.344 163.634 254.336 168.164C246.328 172.693 190.157 205.098 160.023 200.23C129.889 195.362 125.745 189.237 125.745 189.237C125.745 189.237 151.096 160.948 165.292 129.4C165.292 129.4 228.044 90.0539 260.097 76.3056L172.76 110.224L194.289 55.8462C194.289 55.8462 158.957 112.363 153.307 115.813C147.655 119.269 87.7573 149.981 84.2882 153.42C84.2882 153.42 67.2453 132.836 77.7453 106.149C88.2453 79.4629 104.817 62.4899 107.794 44.0532C107.794 44.0532 57.9004 105.13 54.2036 109.992C50.5068 114.855 32.7526 143.646 54.3631 180.975Z" fill="#FC7878"/>
</svg>
