<svg width="41" height="41" viewBox="0 0 41 41" fill="none" xmlns="http://www.w3.org/2000/svg">
<path d="M26.7935 0H14.2065C2.71967 0 0 2.71967 0 14.2065V26.7935C0 38.2803 2.71967 41 14.2065 41H26.7935C38.2803 41 41 38.2803 41 26.7935V14.2065C41 2.71967 38.2513 0 26.7935 0ZM33.1007 29.2518H30.1213C28.9938 29.2518 28.6453 28.3549 26.6192 26.3015C24.8545 24.5932 24.0738 24.3625 23.6399 24.3625C23.0318 24.3625 22.8575 24.5368 22.8575 25.3756V28.0662C22.8575 28.7905 22.6269 29.2245 20.717 29.2245C17.5634 29.2245 14.0613 27.3145 11.603 23.7544C7.89933 18.5474 6.88458 14.6404 6.88458 13.8307C6.88458 13.3967 7.05883 12.9919 7.89763 12.9919H10.877C11.6286 12.9919 11.919 13.3387 12.2095 14.1484C13.6838 18.4022 16.1438 22.1349 17.1568 22.1349C17.5326 22.1349 17.7069 21.9606 17.7069 21.0074V16.6067C17.5907 14.5806 16.5196 14.4081 16.5196 13.6855C16.5196 13.337 16.81 12.9902 17.2712 12.9902H21.9589C22.5961 12.9902 22.8268 13.337 22.8268 14.0886V20.0217C22.8268 20.6572 23.1172 20.8895 23.2897 20.8895C23.6655 20.8895 23.985 20.6572 24.6786 19.9636C26.8208 17.5617 28.3532 13.858 28.3532 13.858C28.5565 13.4241 28.9033 13.0192 29.6567 13.0192H32.636C33.5329 13.0192 33.7362 13.4805 33.5329 14.1177C33.157 15.855 29.5115 21.004 29.5115 21.004C29.1937 21.525 29.0775 21.7556 29.5115 22.3365C29.8292 22.7704 30.8713 23.6673 31.5666 24.477C32.8393 25.924 33.8216 27.1386 34.083 27.9791C34.3734 28.8162 33.9378 29.2501 33.099 29.2501L33.1007 29.2518Z" fill="#FFF6E5"/>
</svg>
